<svg width="175" height="24" viewBox="0 0 175 24" fill="none" xmlns="http://www.w3.org/2000/svg"><path d="M12.3325 12.0513l3.9814-4.8655c.0873-.0861.0136-.1858-.1151-.1858h-2.036c-.0304 0-.1161.0429-.1161.0429l-4.691 5.4215-.0159-5.3511c0-.0569-.0597-.1133-.133-.1133H7.5696c-.0869 0-.1404.0564-.1404.1132v9.7039c0 .0576.0535.1144.1404.1144h1.6372c.0733 0 .133-.0568.133-.1144l.0158-1.7955c.2738-.2683 1.4705-1.4379 1.7087-1.7087l2.9149 3.5757c.0106.0147.081.0429.1103.0429h2.1387c.1268 0 .2001-.0997.1132-.1836l-4.0089-4.6966z" fill="#F1600D"/><path d="M11.5511 0C5.1792 0 0 5.1697 0 11.5236c0 6.3562 5.1792 11.5248 11.5511 11.5248 6.3686 0 11.549-5.169 11.549-11.5248C23.1001 5.1697 17.9197 0 11.5511 0zm0 21.1399c-5.3144 0-9.6368-4.3131-9.6368-9.6159 0-5.301 4.3224-9.6137 9.6368-9.6137 5.3127 0 9.635 4.3131 9.635 9.6137 0 5.3028-4.3223 9.6159-9.635 9.6159z" fill="#F1600D"/><path d="M36.4877 11.5972l3.9793-4.868c.0858-.0847.0103-.1848-.1133-.1848h-2.0389c-.0326 0-.1132.0422-.1132.0422l-4.6874 5.4237-.022-5.3512c0-.0579-.0586-.1143-.1301-.1143h-1.6416c-.084 0-.1404.0568-.1404.1143v9.7021c0 .0587.0564.1151.1404.1151h1.6416c.0715 0 .1301-.0564.1301-.1151l.022-1.7945c.2705-.2686 1.4653-1.4393 1.7032-1.7087l2.9087 3.5758c.0157.0146.0857.0429.1132.0429h2.1408c.1298 0 .2002-.0994.1144-.1848l-4.0068-4.6947zM55.4319 11.4115c0-1.4998-.5194-2.773-1.5629-3.8158-1.0427-1.0446-2.2918-1.5662-3.7359-1.5662-.9617 0-1.8542.2383-2.681.7166-.8328.4783-1.4819 1.124-1.9572 1.9436-.471.818-.7093 1.7138-.7093 2.687 0 1.4558.5088 2.7114 1.5251 3.7685 1.0164 1.0585 2.2981 1.587 3.8338 1.587 1.4649 0 2.7195-.5139 3.7465-1.5438 1.027-1.031 1.5409-2.2896 1.5409-3.7769zm-2.9252 2.4461c-.6535.6649-1.4382.9984-2.3622.9984-.817 0-1.5471-.2569-2.1797-.7708-.8107-.6557-1.2154-1.546-1.2154-2.6737 0-1.012.324-1.8447.9673-2.5004.6491-.6564 1.4441-.9837 2.3955-.9837.9354 0 1.7348.3357 2.3839 1.0079.6597.6725.9892 1.4924.9892 2.4626 0 .9731-.3295 1.7945-.9786 2.4597zM79.0646 6.0298c-.9566 0-1.849.2382-2.6755.7165-.8328.4783-1.4819 1.1241-1.9572 1.9437-.4761.818-.7092 1.7138-.7092 2.6869 0 1.4558.5087 2.7115 1.525 3.7685 1.0164 1.0585 2.2926 1.587 3.8334 1.587 1.4654 0 2.7134-.5138 3.7414-1.5437 1.027-1.031 1.546-2.2897 1.546-3.777 0-1.4998-.5245-2.773-1.568-3.8158-1.0372-1.045-2.2863-1.5661-3.7359-1.5661zm2.3787 7.8277c-.6535.6648-1.4378.9984-2.3618.9984-.817 0-1.546-.257-2.1735-.7708-.8169-.6557-1.2219-1.546-1.2219-2.6738 0-1.0119.3244-1.8446.9672-2.5003.6495-.6565 1.4441-.9838 2.3904-.9838.9409 0 1.7348.3358 2.3894 1.008.6597.6725.9837 1.4924.9837 2.4626 0 .9731-.3244 1.7945-.9735 2.4597zM95.5068 14.5529c-.4647.2107-.9837.3167-1.5511.3167-.6601 0-1.2656-.1522-1.8062-.452-.5461-.3001-.9628-.7132-1.2601-1.241-.2976-.5267-.4434-1.1296-.4434-1.8095 0-.9775.3295-1.7977 1.0061-2.4626.6699-.6649 1.4924-.9973 2.471-.9973 1.1619 0 2.2057.4867 3.1297 1.462l1.3623-1.2934c-.5677-.6546-1.2377-1.16-2.0224-1.5133-.7832-.3556-1.5944-.533-2.4373-.533-.9951 0-1.9257.239-2.7797.7206-.865.4794-1.5247 1.1139-1.9895 1.9059-.4596.7876-.6923 1.6918-.6923 2.7071 0 1.569.5087 2.8581 1.5196 3.862 1.0163 1.0057 2.3186 1.5071 3.9092 1.5071.8639 0 1.6373-.1426 2.308-.4259.6707-.2841 1.3887-.7939 2.1412-1.5291l-1.3195-1.3708c-.5622.5527-1.0761.9368-1.5456 1.1465zM65.4229 11.5974l3.9742-4.8678c.0861-.0846.0157-.1847-.1082-.1847h-2.0444c-.0275 0-.1133.0422-.1133.0422l-4.6873 5.4237-.022-5.3512c0-.0579-.0535-.1143-.1235-.1143h-1.6435c-.0872 0-.1407.0568-.1407.1143v9.7017c0 .0587.0535.1151.1407.1151h1.6435c.07 0 .1235-.0564.1235-.1151l.022-1.7944c.2705-.2687 1.4653-1.4393 1.7087-1.7087l2.9083 3.5757c.0157.0147.0861.0429.1132.0429h2.1409c.1301 0 .2004-.0993.1143-.1847l-4.0064-4.6947zM131.752 10.9219c.318-.449.48-1.0072.48-1.675 0-.6355-.145-1.1853-.432-1.6508-.292-.4647-.713-.9661-1.194-1.157-.753-.2958-4.466-.1415-5.59-.1415h-2.06v10.1591h1.94v-4.3026h3.4l2.293 4.3022h2.126l-2.417-4.5173c.648-.2284 1.134-.5696 1.454-1.0171zm-1.746-.8939c-.233.1594-.661.2389-1.277.2389h-3.833v-2.084h3.757c.514 0 .871.0367 1.059.1081.196.0715.353.1892.466.3537.12.1624.174.3555.174.578 0 .3753-.115.6418-.346.8053zM112.575 11.303v1.8168h2.952c-.282.5989-.648 1.0383-1.114 1.3195-.46.2811-1.026.4214-1.697.4214-1.032 0-1.902-.3419-2.605-1.0214-.703-.6818-1.055-1.5123-1.055-2.4942 0-.9482.342-1.7538 1.017-2.4164.676-.6638 1.519-.9933 2.523-.9933 1.152 0 2.163.4552 3.03 1.3679l1.367-1.3488c-.627-.6704-1.261-1.1465-1.919-1.4225-.768-.327-1.594-.4885-2.488-.4885-1.697 0-3.075.5904-4.134 1.7728-.894.9955-1.337 2.1646-1.337 3.5105 0 .9786.237 1.892.719 2.7397.487.8474 1.146 1.4987 1.975 1.9594.83.4563 1.779.6861 2.832.6861.994 0 1.854-.21 2.59-.6282.735-.4186 1.335-1.0259 1.8-1.823.46-.7961.692-1.6384.692-2.5275l-.016-.4289h-5.132v-.0014zM173.41 6.408c-.491-.2045-2.735-.111-3.854-.111h-2.06V16.456h1.941v-4.3022c.994 0 3.113-.0524 3.486-.1595.638-.1825 1.148-.5098 1.521-.9808.371-.4687.556-1.058.556-1.7673 0-.64-.141-1.1882-.428-1.6467-.285-.4582-.675-.9856-1.162-1.1916zm-.453 3.4145c-.109.1583-.26.2738-.445.3419-.189.07-1.972.1027-2.454.1027h-.621v-2.084h.552c.6 0 2.448-.1302 2.67.004.309.1785.46.663.46 1.0552-.001.2276-.055.4204-.162.5802zM142.461 6.0435c-.956 0-1.848.236-2.674.7143-.823.4761-1.471 1.1223-1.943 1.9363-.474.8151-.713 1.7087-.713 2.68 0 1.4495.514 2.7019 1.525 3.756 1.017 1.0552 2.287 1.5816 3.818 1.5816 1.464 0 2.708-.5117 3.736-1.5398 1.021-1.027 1.536-2.2815 1.536-3.7656 0-1.4935-.521-2.7628-1.56-3.8022-1.038-1.0406-2.28-1.5606-3.725-1.5606zm2.365 7.8024c-.645.663-1.434.9932-2.352.9932-.812 0-1.535-.2551-2.169-.7656-.812-.6546-1.211-1.5409-1.211-2.6672 0-1.0068.319-1.8366.963-2.4908.642-.6557 1.437-.9797 2.383-.9797.929 0 1.731.3335 2.379 1.0035.654.6715.984 1.4884.984 2.4564 0 .9702-.329 1.7875-.977 2.4502zM159.603 12.626c0 .6795-.05 1.1424-.14 1.3836-.099.2412-.266.4395-.514.5956-.25.1576-1.978.2342-2.324.2342-.326 0-.603-.0682-.829-.2089-.233-.1404-.394-.3284-.491-.5645-.103-.2338-.151-.6344-.151-1.1996v-6.569h-1.946v6.0552c0 1.2143.113 2.0723.35 2.5803.239.5087.627.9335 1.174 1.2721.55.338 1.194.5066 1.934.5066.562 0 2.499-.0884 2.927-.2665.421-.1781.792-.4479 1.123-.817.324-.369.552-.7499.665-1.1461.113-.3965.173-1.1043.173-2.1291V6.2974h-1.952v6.3286h.001z" fill="#fff"/></svg>
